<?xml version="1.0" encoding="UTF-8"?>
<svg id="Layer_2" data-name="Layer 2" xmlns="http://www.w3.org/2000/svg" viewBox="0 0 578.86 238.32">
  <defs>
    <style>
      .cls-1 {
        fill: #ee3d23;
      }

      .cls-1, .cls-2, .cls-3, .cls-4, .cls-5, .cls-6, .cls-7, .cls-8, .cls-9 {
        stroke-width: 0px;
      }

      .cls-2 {
        fill: #e6a96a;
      }

      .cls-3 {
        fill: #dbb291;
      }

      .cls-4 {
        fill: #fecd87;
      }

      .cls-5 {
        fill: #8cd3d3;
      }

      .cls-6 {
        fill: #fedcba;
      }

      .cls-7 {
        fill: #fff;
      }

      .cls-8 {
        fill: #67c8c8;
      }

      .cls-9 {
        fill: #f1ae4a;
      }
    </style>
  </defs>
  <g id="Layer_1-2" data-name="Layer 1">
    <g>
      <g>
        <path class="cls-7" d="m49.76,223.79v14.53H15.58c-10.39,0-15.58-5.31-15.58-15.93v-37.79c0-10.62,5.19-15.93,15.58-15.93h34.18v14.53h-30c-1.47,0-2.48.31-3.02.93-.54.62-.81,1.47-.81,2.56v33.6c0,1.09.27,1.94.81,2.56.54.62,1.55.93,3.02.93h30Z"/>
        <path class="cls-7" d="m76.62,168.68v69.64h-15.81v-69.64h15.81Z"/>
        <path class="cls-7" d="m105.45,196.93v41.39h-15.93v-62.55c0-2.09.5-3.8,1.51-5.12,1.01-1.32,2.83-1.98,5.46-1.98h2.91c2.01,0,3.53.35,4.53,1.05,1.01.7,1.82,1.7,2.44,3.02l18.37,37.44v-41.51h15.81v62.55c0,2.09-.5,3.8-1.51,5.12-1.01,1.32-2.83,1.98-5.46,1.98h-2.91c-2.02,0-3.53-.35-4.53-1.05-1.01-.7-1.82-1.7-2.44-3.02l-18.25-37.32Z"/>
        <path class="cls-7" d="m152.42,168.68h50.92v14.53h-35v13.37h35v14.18h-35v9.53c0,1.09.27,1.94.81,2.56.54.62,1.55.93,3.02.93h31.16v14.53h-35.34c-10.39,0-15.58-5.31-15.58-15.93v-53.72Z"/>
        <path class="cls-7" d="m390.52,223.79v14.53h-34.18c-10.39,0-15.58-5.31-15.58-15.93v-37.79c0-10.62,5.19-15.93,15.58-15.93h34.18v14.53h-30c-1.47,0-2.48.31-3.02.93-.54.62-.81,1.47-.81,2.56v33.6c0,1.09.27,1.94.81,2.56.54.62,1.55.93,3.02.93h30Z"/>
        <path class="cls-7" d="m415.52,238.32c-10.39,0-15.58-5.31-15.58-15.93v-37.79c0-10.62,5.19-15.93,15.58-15.93h19.88c10.39,0,15.58,5.31,15.58,15.93v37.79c0,10.62-5.19,15.93-15.58,15.93h-19.88Zm15.93-14.3c1.47,0,2.48-.31,3.02-.93.54-.62.81-1.47.81-2.56v-34.06c0-1.09-.27-1.94-.81-2.56-.54-.62-1.55-.93-3.02-.93h-11.98c-1.47,0-2.48.31-3.02.93-.54.62-.82,1.47-.82,2.56v34.06c0,1.09.27,1.94.82,2.56.54.62,1.55.93,3.02.93h11.98Z"/>
        <path class="cls-7" d="m479.93,238.32h-15.93v-53.72c0-10.62,5.19-15.93,15.58-15.93h19.65c10.39,0,15.58,5.31,15.58,15.93v16.86c0,9.69-4.38,14.96-13.14,15.81l17.56,21.04h-19.88l-16.74-20.93h-2.67v20.93Zm3.84-55.11c-1.47,0-2.48.31-3.02.93-.54.62-.81,1.47-.81,2.56v16.51h15.11c1.47,0,2.48-.31,3.02-.93.54-.62.81-1.47.81-2.56v-13.02c0-1.09-.27-1.94-.81-2.56-.54-.62-1.55-.93-3.02-.93h-11.28Z"/>
        <path class="cls-7" d="m543.75,196.93v41.39h-15.93v-62.55c0-2.09.5-3.8,1.51-5.12,1.01-1.32,2.83-1.98,5.46-1.98h2.91c2.01,0,3.53.35,4.53,1.05,1.01.7,1.82,1.7,2.44,3.02l18.37,37.44v-41.51h15.81v62.55c0,2.09-.5,3.8-1.51,5.12s-2.83,1.98-5.46,1.98h-2.91c-2.02,0-3.53-.35-4.53-1.05-1.01-.7-1.82-1.7-2.44-3.02l-18.25-37.32Z"/>
      </g>
      <g>
        <path class="cls-6" d="m414.3.8c1.13.81,1.38,2.38.57,3.51-.4.55-1,.92-1.67,1.02.43.83.48,1.8.13,2.67-.68,1.54-2.47,2.23-4.01,1.56-.39-.17-.73-.42-1.02-.73-.81-.87-1.01-2.14-.52-3.22l.02-.05c-1.4-.91-1.79-2.78-.88-4.17.8-1.23,2.38-1.71,3.73-1.12l.77.49c.87-.58,2.01-.56,2.86.05Z"/>
        <path class="cls-4" d="m402.73,27.11c1.95.87,2.83,3.15,1.96,5.1-.87,1.95-3.15,2.83-5.1,1.96-.52-.23-.98-.57-1.35-1-.72,1.24-1.94,2.11-3.36,2.37-2.55.39-4.93-1.36-5.32-3.91-.1-.64-.06-1.3.11-1.93.47-1.77,1.95-3.08,3.76-3.33h.08c.03-2.58,2.13-4.63,4.69-4.6,2.26.03,4.18,1.68,4.53,3.92v1.42Z"/>
        <path class="cls-9" d="m388.7,1.78c1.13.81,1.38,2.38.57,3.51-.4.55-1,.92-1.67,1.02.43.83.48,1.8.13,2.67-.67,1.54-2.46,2.24-4,1.56-.39-.17-.74-.42-1.02-.73-.81-.87-1.01-2.14-.52-3.22l.02-.05c-1.4-.91-1.79-2.78-.88-4.17.8-1.23,2.38-1.71,3.73-1.12l.78.49c.87-.58,2.01-.56,2.86.05Z"/>
        <path class="cls-6" d="m376.6,23.14c2.1,1.51,2.57,4.44,1.05,6.53-.74,1.02-1.86,1.7-3.1,1.89.8,1.54.89,3.35.24,4.96-1.25,2.86-4.58,4.16-7.44,2.9-.72-.32-1.37-.78-1.9-1.36-1.5-1.62-1.88-3.98-.97-5.99l.04-.1c-2.6-1.69-3.33-5.16-1.64-7.76,1.49-2.3,4.43-3.18,6.94-2.08l1.45.91c1.62-1.08,3.74-1.04,5.32.1Z"/>
        <path class="cls-4" d="m372.59,53.13c2.51,1.82,3.06,5.33,1.24,7.83,0,0,0,0,0,0l-1.21,1.22c.93,2.41-.27,5.11-2.68,6.04-2.41.93-5.11-.27-6.04-2.68-.25-.64-.35-1.33-.3-2.02-1.68.45-3.46.15-4.9-.84-2.52-1.84-3.06-5.38-1.22-7.89.46-.63,1.05-1.16,1.74-1.56,1.91-1.11,4.3-.97,6.06.36l.08.06c1.95-1.92,5.01-2.15,7.22-.54Z"/>
        <path class="cls-6" d="m353.83,15.87c2.1,1.51,2.57,4.43,1.06,6.52-.74,1.02-1.86,1.71-3.11,1.89.8,1.54.89,3.35.24,4.96-1.25,2.86-4.58,4.16-7.44,2.9-.72-.32-1.37-.78-1.9-1.36-1.5-1.62-1.88-3.98-.97-5.99l.04-.1c-2.6-1.69-3.33-5.16-1.64-7.76,1.49-2.29,4.42-3.18,6.93-2.09l1.45.92c1.62-1.08,3.74-1.04,5.32.1h0Zm-3.23,62.95c2.88,1.01,4.4,4.16,3.4,7.04-.73,2.1-2.65,3.55-4.86,3.7v.11c-.51,3.63-3.86,6.17-7.49,5.68-2.46-.34-4.52-2.01-5.35-4.35,0,0-1.4.04-1.87.01-4.38-.29-7.12-5.39-5.03-9.58,1-1.99,2.93-3.34,5.14-3.59.97-.11,1.95-.01,2.88.3l.06-1.23c.5-3.63,3.84-6.17,7.47-5.68,3.63.5,6.17,3.84,5.68,7.47l-.02.11Zm-100.62,3.16c1.75-1.99,4.88-2.9,9.77-.87,0,0-.29-12.66,13.86-7.49,0,0,4.5-8.24,11.96-.71,1.41-3.23,22.33-1,15.43,15.14-.57-.27-1.17-.45-1.79-.55-2.19-.35-4.42.43-5.92,2.07-3.15,3.47-1.88,9.13,2.25,10.58.44.15,1.8.49,1.8.49.25,3.66,3.42,6.42,7.08,6.17,2.47-.17,4.64-1.7,5.63-3.97l.04-.11c2.57.55,5.17-.79,6.22-3.21,7.32-7.2,17.6-1.84,20.81,5.43.42.95,2.13,4.79,2.38,5.68l1.04-.65c3.29-1.62,7.27-.26,8.88,3.03,1.6,3.26.29,7.2-2.95,8.84l-.1.05c.21.69.26,1.43.15,2.15-.49,3.68-3.77,6.33-7.47,6.04v.02c-1.4-.31-2.9-.69-4.48-1.12-4.76-1.28-10.34-3.05-16.48-5.22-5.31-1.89-11.05-4.08-17.03-6.55-2.57-1.06-5.18-2.16-7.83-3.31-2.92-1.26-5.76-2.53-8.52-3.81-5.61-2.58-10.89-5.15-15.69-7.64-5.65-2.92-10.65-5.73-14.77-8.28-1.95-1.21-3.71-2.36-5.26-3.44h0c-1.25-2.27-1.16-6.32.99-8.75Z"/>
        <path class="cls-1" d="m347.97,131.37l-57.22,93.95c-3.5-.02-6.94-.18-10.31-.5l54.14-95.84c1.59.43,3.08.8,4.48,1.12,3.77.85,6.8,1.3,8.91,1.26h0Z"/>
        <path class="cls-2" d="m347.97,131.37c-2.11.03-5.14-.41-8.91-1.26v-.02c3.7.3,6.99-2.36,7.47-6.04,3.54,2.76,5.28,4.92,4.74,6.17-.33.76-1.47,1.13-3.3,1.15h0Z"/>
        <path class="cls-4" d="m329.83,43.13c5,.52,7.91,6.49,5.33,11.21-1.84,3.29-5.81,4.74-9.34,3.41l-.11,1.4c-.73,4.14-4.68,6.9-8.82,6.17-4.14-.73-6.9-4.68-6.17-8.82l.03-.13c-3.26-1.28-4.86-4.96-3.58-8.22.93-2.37,3.2-3.95,5.74-4.02v-.13c.75-4.14,4.7-6.9,8.83-6.16,2.8.5,5.09,2.51,5.94,5.23,0,0,1.61.01,2.15.07h0Zm4.75,85.86l-54.14,95.84c-4.49-.41-8.95-1.11-13.35-2.09l51.01-98.98c6.14,2.18,11.72,3.95,16.48,5.22h0Z"/>
        <path class="cls-1" d="m318.1,123.76l-51.01,98.98c-4.02-.89-7.98-2.03-11.86-3.41l45.81-102.04.03-.08c5.99,2.46,11.72,4.66,17.03,6.55h0Z"/>
        <path class="cls-4" d="m314.4,92.79c2.5,1.75,3.12,5.2,1.37,7.7-1.27,1.82-3.51,2.7-5.68,2.24l-.04.11c-1.46,3.36-5.38,4.9-8.74,3.44-2.27-.99-3.8-3.16-3.97-5.63,0,0-1.36-.34-1.8-.49-4.14-1.45-5.4-7.11-2.25-10.58,1.5-1.64,3.72-2.42,5.92-2.07.62.1,1.22.28,1.79.55.31.15.61.32.9.51l.38-1.16c1.46-3.36,5.37-4.91,8.73-3.45,3.36,1.46,4.91,5.37,3.45,8.73l-.05.1Zm-13.34,24.42l-.03.08-45.81,102.04c-3.86-1.37-7.63-2.98-11.29-4.82h0s40.78-104.42,40.78-104.42c2.76,1.27,5.6,2.54,8.52,3.81,2.65,1.15,5.26,2.25,7.83,3.31h0Z"/>
        <path class="cls-1" d="m284.71,110.1l-40.78,104.41h0c-3.97-1.99-7.8-4.24-11.48-6.73l36.57-105.32c4.8,2.49,10.08,5.06,15.69,7.64Z"/>
        <path class="cls-4" d="m269.02,102.45l-36.57,105.32c-3.84-2.61-7.52-5.45-11.01-8.51l32.81-105.1c4.13,2.55,9.12,5.36,14.77,8.28Z"/>
        <path class="cls-1" d="m248.99,90.73c1.54,1.08,3.3,2.23,5.26,3.44l-32.81,105.1c-2.64-2.31-5.22-4.77-7.74-7.38l29.41-106.01c1.79,1.81,3.76,3.44,5.88,4.85h0Z"/>
        <path class="cls-2" d="m249.98,81.99c-2.15,2.43-2.24,6.47-.99,8.74-2.12-1.41-4.09-3.04-5.88-4.85-1.25-1.37-1.77-2.46-1.44-3.22.57-1.3,3.54-1.46,8.3-.67Z"/>
        <path class="cls-3" d="m259.36,91.38c1.75-1.99,4.88-2.9,9.77-.87,0,0-.29-12.66,13.86-7.49,0,0,4.5-8.24,11.96-.71.53-1.22,3.86-1.66,7.42-.87-.57-10.09-15.62-11.25-16.81-8.52-7.46-7.53-11.96.71-11.96.71-14.15-5.17-13.86,7.49-13.86,7.49-4.89-2.03-8.02-1.12-9.77.87-2.15,2.43-2.24,6.47-.99,8.74h0c1.54,1.08,3.3,2.24,5.26,3.45,1.05.65,2.16,1.32,3.33,2,.04-1.76.67-3.45,1.79-4.8h0Z"/>
        <path class="cls-4" d="m282.95,81.83c2.1,1.51,2.57,4.43,1.06,6.52-.74,1.02-1.86,1.71-3.11,1.89.8,1.54.89,3.35.24,4.96-1.25,2.86-4.58,4.16-7.43,2.91-.72-.32-1.37-.78-1.91-1.36-1.5-1.62-1.88-3.98-.97-5.99l.04-.1c-2.6-1.69-3.33-5.16-1.64-7.76,1.49-2.29,4.42-3.18,6.93-2.09l1.45.92c1.62-1.08,3.74-1.04,5.32.1h0Z"/>
        <path class="cls-8" d="m355.56,100.02c-.78,0-1.41-.63-1.41-1.41,0-.43.2-.85.54-1.11l4.43-3.45c.61-.48,1.5-.37,1.98.25.48.61.37,1.5-.25,1.98l-4.43,3.45c-.25.19-.55.3-.86.3h0Zm-37.9-23.63c-.78,0-1.41-.63-1.41-1.41,0-.43.19-.83.53-1.1l2.46-1.97c.6-.49,1.49-.4,1.98.2.49.6.4,1.49-.2,1.98,0,0-.01.01-.02.02l-2.46,1.97c-.25.2-.56.31-.88.31h0Zm29.04-26.58c-.78,0-1.41-.63-1.41-1.41,0-.43.19-.83.53-1.1l2.46-1.97c.61-.49,1.49-.39,1.98.22.49.61.39,1.49-.22,1.98h0l-2.46,1.97c-.25.2-.56.31-.88.31h0Zm37.41,15.26c-.78,0-1.41-.63-1.41-1.41,0-.43.19-.83.53-1.1l.51-.4c.61-.49,1.49-.39,1.98.22.49.61.39,1.49-.22,1.98l-.51.4c-.25.2-.56.31-.88.31h0Zm-55.62-29.04c-.78,0-1.41-.63-1.41-1.41,0-.43.19-.83.53-1.1l.51-.4c.61-.49,1.49-.39,1.98.22s.39,1.49-.22,1.98h0l-.51.4c-.25.2-.56.31-.88.31Zm34.45-21.16c-.78,0-1.41-.63-1.41-1.4,0-.47.24-.92.63-1.18l7.38-4.92c.64-.44,1.52-.27,1.96.37.44.64.27,1.52-.37,1.96,0,0-.02.01-.03.02l-7.38,4.92c-.23.15-.5.24-.78.24Zm16.24,35.44c-.78,0-1.41-.63-1.41-1.41,0-.43.19-.83.52-1.1l5.43-4.39c.61-.49,1.49-.39,1.98.22.48.6.39,1.48-.21,1.97l-5.43,4.39c-.25.2-.56.31-.88.31Zm11.81-31.99c-.78,0-1.41-.63-1.41-1.4,0-.47.24-.92.63-1.18l1.89-1.26c.64-.44,1.52-.27,1.96.37s.27,1.52-.37,1.96c0,0-.02.01-.03.02l-1.89,1.26c-.23.16-.5.24-.78.24Z"/>
        <path class="cls-5" d="m347.1,147.34c-.78,0-1.41-.63-1.41-1.41,0-.24.06-.48.19-.7l1.15-2.02c.37-.68,1.23-.93,1.91-.56.68.37.93,1.23.56,1.91,0,.02-.02.03-.03.05l-1.15,2.02c-.25.44-.72.71-1.23.71Zm-19.23,33.7c-.24,0-.48-.06-.7-.19-.68-.39-.91-1.25-.53-1.92l14.78-25.9c.39-.67,1.25-.9,1.92-.52.67.39.9,1.24.52,1.91l-14.78,25.9c-.25.44-.72.71-1.22.71Z"/>
      </g>
    </g>
  </g>
</svg>